<?xml version="1.0" encoding="utf-8"?>
<!-- Generator: Adobe Illustrator 16.0.0, SVG Export Plug-In . SVG Version: 6.00 Build 0)  -->
<!DOCTYPE svg PUBLIC "-//W3C//DTD SVG 1.1//EN" "http://www.w3.org/Graphics/SVG/1.1/DTD/svg11.dtd">
<svg version="1.1" xmlns="http://www.w3.org/2000/svg" xmlns:xlink="http://www.w3.org/1999/xlink" x="0px" y="0px" width="1224px"
	 height="792px" viewBox="0 0 1224 792" enable-background="new 0 0 1224 792" xml:space="preserve">
<g id="Layer_1" display="none">
</g>
<g id="Layer_3">
	<g opacity="0.4">
		<path fill="#FF6424" d="M779.195,165.621c0,0-25.689-21.841-118.521-31.75c-92.831-9.908-149.967,10.71-176.909,26.355
			c-16.133,9.371,3.504,19.508,22.773,24.928c19.266,5.42,68.311,50.521,73.564,70.633
			C585.359,275.899,779.195,165.621,779.195,165.621z"/>
		<path fill="#FF6424" d="M612,206.51c0,0-18.93-9.758-77.457-2.562c-58.531,7.197-102.031,30.156-105.061,41.545
			c-3.029,11.387,4.947,11.498,17.576,12.074c12.629,0.574,49.258,21.299,55.371,32.919S612,206.51,612,206.51z"/>
		<path fill="#FF6424" d="M525.285,651.086c0,0-22.854,36.914-42.189,45.703c-19.336,8.791-1.52,14.98,13.477,15.82
			c33.984,1.904,96.408,0.895,135.079-29.865C670.322,651.982,525.285,651.086,525.285,651.086z"/>
		<path fill="#005AB9" stroke="#005AB9" stroke-width="3" stroke-miterlimit="10" d="M874.457,212.006
			c0,0-6.537-57.666-40.119-61.893c-27.441-3.453-49.498-10.5-65.998,0l34.268,32.236l68.604,39.051L874.457,212.006z"/>
		<linearGradient id="SVGID_1_" gradientUnits="userSpaceOnUse" x1="706.3052" y1="180.0059" x2="706.3052" y2="710.0059">
			<stop  offset="0" style="stop-color:#FFAA24"/>
			<stop  offset="0.0854" style="stop-color:#FFAE24"/>
			<stop  offset="0.1673" style="stop-color:#FFB924"/>
			<stop  offset="0.1901" style="stop-color:#FFBE24"/>
			<stop  offset="0.3461" style="stop-color:#FFB324"/>
			<stop  offset="0.4452" style="stop-color:#FFAA24"/>
			<stop  offset="1" style="stop-color:#FF7824"/>
		</linearGradient>
		<path fill="url(#SVGID_1_)" stroke="#FF6424" stroke-width="10" stroke-miterlimit="10" d="M390.357,513.094
			c0,122.994,183.492,196.912,371.897,196.912c146.355,0,260-118.645,260-265s-118.645-265-265-265
			C576.349,180.006,390.357,366.738,390.357,513.094z"/>
		<path fill="#FF6424" d="M406.857,510.094c0-37.619-24-76.496-61.498-107.994c-37.498-31.5-89.994-58.498-101.994-71.998
			c-12-13.499-26.998-23.998-31.498,7.5s12,70.498,41.998,121.494c29.998,50.998,44.998,83.996,31.498,137.994
			c-13.5,53.996-37.498,91.496-28.498,98.994c8.998,7.5,94.461-38.436,113.994-67.496
			C390.357,599.578,406.857,564.09,406.857,510.094z"/>
		<path fill="#FFFFFF" stroke="#FF6424" stroke-width="5" stroke-miterlimit="10" d="M942.541,348.688
			c12,58.733-15.699,106.864-52.561,106.864c-36.863,0-69.645-18.955-85.334-68.953c-16.459-52.451-2.471-115.051,33.689-127.494
			C884.834,243.106,932.756,300.803,942.541,348.688z"/>
		<path fill="#FFFFFF" stroke="#FF6424" stroke-width="5" stroke-miterlimit="10" d="M1013.334,315.434
			c12.332,41.102,0.139,77.549-21.764,80.262c-21.902,2.715-32.578-9.723-46.33-44.309c-14.424-36.281-28.143-80.982-7.76-92.538
			C963.689,243.988,1003.279,281.924,1013.334,315.434z"/>
		<path fill="#E64624" d="M1031.545,480.674c-2.623-1.77-7.463-2.461-15.234-2.176c-20.24,0.742-52.721,7.98-54.094,8.287
			l-9.67,2.17l9.57,2.574c0.248,0.066,25,6.824,39.857,19.887c6.236,5.482,12.641,8.023,19.584,7.77
			c3.428-0.127,7.035-0.967,10.721-2.5c4.637-1.926,7.666-6.734,8.312-13.191C1041.371,495.715,1038.516,485.379,1031.545,480.674z"
			/>
		<path fill="#E64624" d="M1030.086,437.391c-2.166-1.4-4.576-2.148-7.162-2.219c-8.273-0.225-18.219,6.393-29.561,19.67
			c-11.621,13.607-33.781,29.029-34.004,29.184l-6.271,4.346l7.627,0.209c1.654,0.045,40.834,0.967,70.514-10.787
			c7.455-2.953,11.936-8.35,12.613-15.195C1044.721,453.723,1038.936,443.121,1030.086,437.391z"/>
		
			<ellipse transform="matrix(0.9921 -0.1257 0.1257 0.9921 -54.4425 97.8257)" fill="#005AB9" cx="747.841" cy="480.255" rx="83.995" ry="89.996"/>
		
			<ellipse transform="matrix(0.9921 -0.1257 0.1257 0.9921 -53.9048 96.3353)" fill="#007DB9" stroke="#005AB9" stroke-width="5" stroke-miterlimit="10" cx="736.311" cy="475.255" rx="83.996" ry="89.996"/>
		<linearGradient id="SVGID_2_" gradientUnits="userSpaceOnUse" x1="762.646" y1="490.0957" x2="762.646" y2="143.8145">
			<stop  offset="0.454" style="stop-color:#007DB9"/>
			<stop  offset="0.6206" style="stop-color:#0083C4"/>
			<stop  offset="0.8734" style="stop-color:#0092DC"/>
			<stop  offset="1" style="stop-color:#008CB9"/>
		</linearGradient>
		<path fill="url(#SVGID_2_)" stroke="#005AB9" stroke-width="3" stroke-linecap="round" stroke-miterlimit="10" d="M759.92,490.096
			c0,0-9.578-60.266-8.078-134.128c1.5-73.861,16.188-120.359,35.842-151.857c15.297-24.515,27.777-43.027,48.822-53.428
			c-0.721-0.214-1.441-0.408-2.168-0.569c-27-6-49.498-10.5-65.998,0c-16.498,10.5-49.332,49.724-62.033,96.529
			c-20.797,76.638-22.133,173.012-9,243.453"/>
		<path fill="#FF6424" stroke="#FF6424" stroke-width="5" stroke-linecap="round" stroke-miterlimit="10" d="M850.553,664.713
			c0,0-6.566,44.689-27.094,55.311c-20.527,10.619-42.002,10.844-55.256,15.801s-22.994-14.879,9.965-48.992
			c32.959-34.115,72.385-79.744,72.385-79.744"/>
		<g>
			
				<ellipse transform="matrix(0.9569 -0.2906 0.2906 0.9569 -71.7148 282.5562)" fill="#191B1C" cx="915.614" cy="382.769" rx="19.423" ry="23.995"/>
		</g>
		<g>
			
				<ellipse transform="matrix(0.996 -0.0894 0.0894 0.996 -27.7778 90.6633)" fill="#191B1C" cx="998.603" cy="355.543" rx="13.922" ry="17.578"/>
		</g>
		<path fill="#FF6424" d="M935.986,327.475c-17.115-41.866-57.9-82.046-97.65-68.369c-35.807,12.321-49.867,73.822-34.158,125.951
			c11.617-9.295,37.801-28.752,67.41-40.964C895.629,334.179,920.199,329.572,935.986,327.475z"/>
		<path fill="#FF6424" d="M1012.238,312.094c-11.566-32.623-49.416-67.613-74.758-53.245c-16.178,9.171-10.869,39.22-0.781,69.368
			c11.078-4.159,25.998-9.422,40.01-13.262C994.115,310.186,1006.012,310.959,1012.238,312.094z"/>
	</g>
</g>
<g id="Layer_2">
	<path fill="#FF6424" d="M779.195,165.621c0,0-25.689-21.841-118.521-31.75c-92.832-9.908-149.969,10.71-176.907,26.355
		c-16.134,9.371,3.503,19.508,22.771,24.928c19.267,5.42,68.311,50.521,73.564,70.633
		C585.357,275.899,779.195,165.621,779.195,165.621z"/>
	<path fill="#FF6424" d="M611.268,203.364c0,0-19.146-10.49-77.907-3.595c-58.762,6.897-102.231,29.557-105.144,41.509
		c-2.914,11.95,5.107,12.159,17.812,12.912c12.703,0.751,49.771,23.988,56.051,36.29S611.268,203.364,611.268,203.364z"/>
	<path fill="#FF6424" d="M525.283,651.086c0,0-22.852,41.27-42.188,50.381c-19.336,9.113-1.52,15.531,13.477,16.401
		c33.983,1.974,96.406-2.072,135.078-33.963C670.322,652.016,525.283,651.086,525.283,651.086z"/>
	<path fill="#005AB9" stroke="#005AB9" stroke-width="3" stroke-miterlimit="10" d="M874.456,212.006
		c0,0-6.537-57.666-40.119-61.893c-27.441-3.453-49.498-10.5-65.997,0l34.268,32.236l68.604,39.051L874.456,212.006z"/>
	<linearGradient id="SVGID_3_" gradientUnits="userSpaceOnUse" x1="704.3052" y1="180.0059" x2="704.3052" y2="710.0059">
		<stop  offset="0" style="stop-color:#FFAA24"/>
		<stop  offset="0.0854" style="stop-color:#FFAE24"/>
		<stop  offset="0.1673" style="stop-color:#FFB924"/>
		<stop  offset="0.1901" style="stop-color:#FFBE24"/>
		<stop  offset="0.3461" style="stop-color:#FFB324"/>
		<stop  offset="0.4452" style="stop-color:#FFAA24"/>
		<stop  offset="1" style="stop-color:#FF7824"/>
	</linearGradient>
	<path fill="url(#SVGID_3_)" stroke="#FF6424" stroke-width="10" stroke-miterlimit="10" d="M386.357,513.093
		c0,94.638,54.2,121.185,151.995,158.743c64.599,24.811,143.806,38.17,223.901,38.17c146.355,0,260-118.645,260-265
		s-118.645-265-265-265c-91.258,0-183.811,47.519-253.129,113.401C436.031,358.126,386.357,406.587,386.357,513.093z"/>
	<linearGradient id="SVGID_4_" gradientUnits="userSpaceOnUse" x1="224.6343" y1="506.8682" x2="406.8574" y2="506.8682">
		<stop  offset="0" style="stop-color:#FF8C24"/>
		<stop  offset="1" style="stop-color:#FF6424"/>
	</linearGradient>
	<path fill="url(#SVGID_4_)" d="M406.857,510.667c0-48.777-22.345-85.387-57.256-122.605c-34.912-37.219-83.787-74.12-94.959-90.071
		c-11.173-15.951-25.137-28.357-29.326,8.862c-4.189,37.218,11.172,83.299,39.102,143.557
		c27.929,60.258,41.895,99.25,29.325,163.052c-12.568,63.804-34.911,108.112-26.533,116.973
		c8.378,8.861,87.946-54.417,106.132-88.754C391.495,607.402,406.857,581.081,406.857,510.667z"/>
	<path fill="#FFFFFF" stroke="#FF6424" stroke-width="5" stroke-miterlimit="10" d="M942.54,348.688
		c12,58.732-15.698,106.864-52.561,106.864c-36.863,0-69.644-18.956-85.333-68.953c-16.459-52.451-2.472-115.051,33.688-127.494
		C884.833,243.106,932.756,300.803,942.54,348.688z"/>
	<path fill="#FFFFFF" stroke="#FF6424" stroke-width="5" stroke-miterlimit="10" d="M1013.333,315.434
		c12.332,41.102,0.139,77.549-21.763,80.262c-21.902,2.715-32.579-9.723-46.33-44.309c-14.425-36.281-28.144-80.982-7.76-92.538
		C963.689,243.988,1003.278,281.924,1013.333,315.434z"/>
	<path fill="#E64624" d="M1031.545,480.674c-2.623-1.771-7.464-2.462-15.235-2.176c-20.24,0.741-52.72,7.98-54.093,8.287
		l-9.671,2.17l9.571,2.573c0.248,0.066,24.999,6.825,39.857,19.887c6.235,5.482,12.641,8.024,19.583,7.77
		c3.428-0.126,7.035-0.966,10.721-2.499c4.637-1.927,7.667-6.735,8.312-13.191C1041.37,495.715,1038.515,485.378,1031.545,480.674z"
		/>
	<path fill="#E64624" d="M1030.085,437.391c-2.165-1.401-4.575-2.148-7.162-2.219c-8.273-0.225-18.219,6.393-29.56,19.67
		c-11.621,13.606-33.782,29.028-34.005,29.183l-6.271,4.347l7.627,0.208c1.654,0.045,40.835,0.967,70.514-10.786
		c7.456-2.953,11.936-8.35,12.614-15.195C1044.721,453.722,1038.936,443.121,1030.085,437.391z"/>
	
		<ellipse transform="matrix(0.9921 -0.1257 0.1257 0.9921 -54.4422 97.825)" fill="#005AB9" cx="747.84" cy="480.255" rx="83.996" ry="89.995"/>
	
		<ellipse transform="matrix(0.9921 -0.1257 0.1257 0.9921 -53.9052 96.3358)" fill="#007DB9" stroke="#005AB9" stroke-width="5" stroke-miterlimit="10" cx="736.31" cy="475.255" rx="83.996" ry="89.995"/>
	<linearGradient id="SVGID_5_" gradientUnits="userSpaceOnUse" x1="762.645" y1="490.0947" x2="762.645" y2="143.8145">
		<stop  offset="0.454" style="stop-color:#007DB9"/>
		<stop  offset="0.6206" style="stop-color:#0083C4"/>
		<stop  offset="0.8734" style="stop-color:#0092DC"/>
		<stop  offset="1" style="stop-color:#008CB9"/>
	</linearGradient>
	<path fill="url(#SVGID_5_)" stroke="#005AB9" stroke-width="3" stroke-linecap="round" stroke-miterlimit="10" d="M759.919,490.095
		c0,0-9.578-60.266-8.078-134.127s16.188-120.359,35.843-151.857c15.297-24.515,27.776-43.027,48.821-53.428
		c-0.72-0.214-1.441-0.408-2.168-0.569c-26.999-6-49.498-10.5-65.997,0s-49.333,49.724-62.034,96.529
		c-20.796,76.638-22.133,173.012-9,243.452"/>
	<path fill="#FF6424" stroke="#FF6424" stroke-width="5" stroke-linecap="round" stroke-miterlimit="10" d="M850.552,664.713
		c0,0-6.566,44.689-27.094,55.31c-20.527,10.619-42.001,10.844-55.255,15.802c-13.254,4.957-22.994-14.879,9.965-48.993
		c32.958-34.115,72.384-79.743,72.384-79.743"/>
	<g>
		
			<ellipse transform="matrix(0.9569 -0.2905 0.2905 0.9569 -71.7123 282.532)" fill="#191B1C" cx="915.613" cy="382.768" rx="19.423" ry="23.996"/>
	</g>
	<g>
		
			<ellipse transform="matrix(0.996 -0.0894 0.0894 0.996 -27.7778 90.6632)" fill="#191B1C" cx="998.602" cy="355.543" rx="13.922" ry="17.578"/>
	</g>
	<path fill="#FF6424" d="M935.986,327.475c-17.115-41.866-57.901-82.046-97.651-68.369c-35.807,12.321-49.866,73.822-34.157,125.951
		c11.617-9.295,37.8-28.752,67.41-40.964C895.628,334.179,920.198,329.572,935.986,327.475z"/>
	<path fill="#FF6424" d="M1012.237,312.094c-11.566-32.623-49.415-67.613-74.757-53.245c-16.178,9.171-10.869,39.22-0.781,69.368
		c11.077-4.159,25.997-9.422,40.009-13.262C994.114,310.186,1006.012,310.959,1012.237,312.094z"/>
</g>
</svg>
